# 3ds Max Wavefront OBJ Exporter v0.97b - (c)2007 guruware
# File Created: 16.07.2014 19:40:20

#
# object Candle
#

v  0.4335 0.2386 -0.4335
v  0.5665 0.2386 -0.4335
v  0.5665 0.2386 -0.5665
v  0.4335 0.2386 -0.5665
v  0.4335 0.0000 -0.4335
v  0.5665 0.0000 -0.4335
v  0.5665 0.0000 -0.5665
v  0.4335 0.0000 -0.5665
# 8 vertices

vn 0.0000 1.0000 -0.0000
vn 0.0000 0.0000 1.0000
vn 1.0000 0.0000 -0.0000
vn 0.0000 0.0000 -1.0000
vn -1.0000 0.0000 -0.0000
# 5 vertex normals

vt 0.8594 0.6250 0.9995
vt 1.0000 0.6250 0.9995
vt 1.0000 0.7656 0.9995
vt 0.8594 0.7656 0.9995
vt 0.8594 0.4844 0.0005
vt 1.0000 0.4844 0.0005
vt 1.0000 0.6250 0.0005
vt 0.8594 0.6250 0.0005
vt 0.8594 0.3125 0.9995
vt 1.0000 0.3125 0.9995
vt 1.0000 0.4688 0.9995
vt 0.8594 0.4688 0.9995
vt 0.8594 0.4844 0.9995
vt 1.0000 0.4844 0.9995
vt 0.8594 0.3125 0.0005
vt 1.0000 0.3125 0.0005
vt 1.0000 0.4688 0.0005
vt 0.8594 0.4688 0.0005
# 18 texture coords

g Candle
s 4
f 1/1/1 2/2/1 3/3/1 
f 3/3/1 4/4/1 1/1/1 
s 8
f 5/5/2 6/6/2 2/7/2 
f 2/7/2 1/8/2 5/5/2 
s 16
f 6/9/3 7/10/3 3/11/3 
f 3/11/3 2/12/3 6/9/3 
s 32
f 7/13/4 8/14/4 4/2/4 
f 4/2/4 3/1/4 7/13/4 
s 64
f 8/15/5 5/16/5 1/17/5 
f 1/17/5 4/18/5 8/15/5 
# 10 faces

